<svg width="32" height="32" viewBox="0 0 32 32" fill="none" xmlns="http://www.w3.org/2000/svg">
<g clip-path="url(#clip0_1_125630)">
<path d="M15.9993 31.9997C24.8358 31.9997 31.9992 24.8363 31.9992 15.9999C31.9992 7.16338 24.8358 0 15.9993 0C7.16285 0 -0.000534058 7.16338 -0.000534058 15.9999C-0.000534058 24.8363 7.16285 31.9997 15.9993 31.9997Z" fill="#55ACEE"/>
<path d="M25.8 11.4987C25.1143 11.8028 24.3768 12.0084 23.6033 12.1003C24.393 11.6271 24.9991 10.8784 25.2852 9.98483C24.5462 10.4232 23.7274 10.7412 22.8566 10.9126C22.159 10.1696 21.165 9.70532 20.0644 9.70532C17.9527 9.70532 16.24 11.418 16.24 13.5297C16.24 13.8295 16.2739 14.1213 16.3395 14.4013C13.1611 14.2419 10.3429 12.7194 8.4565 10.4049C8.12737 10.9697 7.93856 11.6271 7.93856 12.3279C7.93856 13.6544 8.61423 14.8255 9.63985 15.5111C9.01324 15.4914 8.42314 15.3194 7.90776 15.0322C7.90747 15.0485 7.90747 15.0648 7.90747 15.0807C7.90747 16.9338 9.22629 18.4793 10.9755 18.8304C10.6549 18.9183 10.3164 18.9647 9.96813 18.9647C9.72114 18.9647 9.48184 18.9411 9.24854 18.8966C9.73511 20.4156 11.1472 21.5214 12.8211 21.5525C11.512 22.5784 9.86317 23.1896 8.0709 23.1896C7.76287 23.1896 7.45769 23.1716 7.15907 23.136C8.85067 24.2215 10.8614 24.8544 13.021 24.8544C20.0555 24.8544 23.9025 19.0269 23.9025 13.9727C23.9025 13.807 23.8988 13.6418 23.8914 13.4781C24.6392 12.9391 25.2875 12.2657 25.8 11.4987Z" fill="#F1F2F2"/>
</g>
<defs>
<clipPath id="clip0_1_125630">
<rect width="32" height="32" fill="white"/>
</clipPath>
</defs>
</svg>
