<svg width="32" height="32" viewBox="0 0 32 32" fill="none" xmlns="http://www.w3.org/2000/svg">
<g clip-path="url(#clip0_1_125625)">
<path d="M16 32C24.8366 32 32 24.8366 32 16C32 7.16344 24.8366 0 16 0C7.16344 0 0 7.16344 0 16C0 24.8366 7.16344 32 16 32Z" fill="#4D76A1"/>
<path fill-rule="evenodd" clip-rule="evenodd" d="M15.3958 23.0173H16.6516C16.6516 23.0173 17.031 22.9757 17.2246 22.7669C17.4029 22.5752 17.3972 22.2153 17.3972 22.2153C17.3972 22.2153 17.3727 20.5302 18.1547 20.2821C18.9257 20.0377 19.9156 21.9107 20.9649 22.6308C21.7584 23.1759 22.3614 23.0564 22.3614 23.0564L25.167 23.0173C25.167 23.0173 26.6347 22.9269 25.9388 21.7729C25.8818 21.6785 25.5335 20.9193 23.8528 19.3591C22.0935 17.7263 22.3291 17.9904 24.4483 15.1659C25.7389 13.4458 26.2548 12.3956 26.0937 11.9458C25.94 11.5174 24.9908 11.6307 24.9908 11.6307L21.8317 11.6503C21.8317 11.6503 21.5976 11.6184 21.4239 11.7222C21.2542 11.824 21.1449 12.0613 21.1449 12.0613C21.1449 12.0613 20.6449 13.3924 19.9781 14.5244C18.5714 16.9131 18.009 17.0392 17.7791 16.8909C17.2443 16.5452 17.3778 15.5022 17.3778 14.7612C17.3778 12.4464 17.7289 11.4812 16.6941 11.2314C16.3507 11.1484 16.098 11.0936 15.2199 11.0848C14.0927 11.0731 13.1386 11.0882 12.5984 11.3529C12.2391 11.5288 11.9618 11.921 12.1307 11.9435C12.3395 11.9715 12.8124 12.071 13.0631 12.4124C13.3868 12.8528 13.3754 13.8419 13.3754 13.8419C13.3754 13.8419 13.5613 16.5669 12.941 16.9054C12.5152 17.1376 11.931 16.6636 10.677 14.4965C10.0344 13.3864 9.54921 12.1594 9.54921 12.1594C9.54921 12.1594 9.45566 11.9301 9.28881 11.8075C9.08631 11.6589 8.80338 11.6115 8.80338 11.6115L5.80149 11.6312C5.80149 11.6312 5.35085 11.6438 5.18542 11.8397C5.03825 12.014 5.17373 12.3745 5.17373 12.3745C5.17373 12.3745 7.5239 17.8729 10.185 20.6437C12.625 23.1842 15.3958 23.0173 15.3958 23.0173Z" fill="white"/>
</g>
<defs>
<clipPath id="clip0_1_125625">
<rect width="32" height="32" fill="white"/>
</clipPath>
</defs>
</svg>
