<svg width="32" height="32" viewBox="0 0 32 32" fill="none" xmlns="http://www.w3.org/2000/svg">
<g clip-path="url(#clip0_1_125620)">
<path d="M15.9999 0C24.837 0 32 7.164 32 16.0001C32 24.8361 24.837 32 15.9999 32C7.1629 32 0 24.836 0 16.0001C0 7.16411 7.16301 0 15.9999 0Z" fill="#C4302B"/>
<path d="M15.613 13.0011C16.119 13.0011 16.5151 12.84 16.8051 12.6111C17.0931 12.3811 17.2371 12.0681 17.2371 11.6661V9.24007C17.2371 8.88307 17.0901 8.58803 16.797 8.36109C16.502 8.13404 16.125 8.02112 15.663 8.02112C15.158 8.02112 14.754 8.12811 14.455 8.34307C14.155 8.55903 14.005 8.84704 14.005 9.21206V11.646C14.005 12.046 14.151 12.362 14.443 12.599C14.7349 12.8361 15.1261 13.0011 15.613 13.0011ZM15.0841 9.33014C15.0841 9.23809 15.1321 9.16416 15.2271 9.10518C15.3231 9.04817 15.4472 9.02016 15.5992 9.02016C15.7652 9.02016 15.8992 9.04817 16.0002 9.10518C16.1023 9.16416 16.1523 9.2382 16.1523 9.33014V11.6361C16.1523 11.7501 16.1023 11.8401 16.0022 11.9051C15.9022 11.9692 15.7682 12.0021 15.5992 12.0021C15.4342 12.0021 15.3062 11.9711 15.2171 11.9061C15.1292 11.8431 15.0841 11.7531 15.0841 11.6361V9.33014ZM18.9611 12.9981C19.1391 12.9981 19.3201 12.896 19.5081 12.7941C19.6982 12.6901 19.8791 12.5381 20.0532 12.3401V12.8791H20.9982V8.01409H20.0532V11.7071C19.9652 11.8121 19.8672 11.8991 19.7622 11.9681C19.6552 12.0361 19.5672 12.0711 19.4983 12.0711C19.4093 12.0711 19.3442 12.0461 19.3062 11.9931C19.2663 11.9421 19.2443 11.8591 19.2443 11.7451V8.01507H18.3013V12.0801C18.3013 12.3701 18.3583 12.5872 18.4672 12.7312C18.5781 12.8761 18.7421 12.9981 18.9611 12.9981ZM21.7091 15.0091H10.289C8.47308 15.0091 7.00204 16.4242 7.00204 18.1672V20.8372C7.00204 22.5812 8.47308 23.9962 10.289 23.9962H21.709C23.524 23.9962 24.996 22.5812 24.996 20.8372V18.1672C24.9961 16.4241 23.5241 15.0091 21.7091 15.0091ZM11.988 17.7191H10.9781V21.9012H10.0011V17.7191H8.99111V17.0061H11.9881C11.988 17.0061 11.988 17.7191 11.988 17.7191ZM15.0021 21.9592H13.9491V21.5252C13.7531 21.6852 13.5521 21.8081 13.3401 21.8902C13.1311 21.9762 12.9271 22.0172 12.7291 22.0172C12.4852 22.0172 12.3032 21.9582 12.1792 21.8392C12.0571 21.7222 11.9942 21.5462 11.9942 21.3112V18.0092H13.0472V21.0382C13.0472 21.1322 13.0691 21.1983 13.1112 21.2402C13.1572 21.2832 13.2302 21.3022 13.3282 21.3022C13.4043 21.3022 13.5042 21.2751 13.6222 21.2191C13.7412 21.1641 13.8502 21.0941 13.9492 21.0071V18.0081H15.0022C15.0021 18.0081 15.0021 21.9592 15.0021 21.9592ZM18.988 21.2072C18.988 21.4662 18.906 21.6631 18.7431 21.8022C18.582 21.9411 18.3441 22.0091 18.0371 22.0091C17.8321 22.0091 17.6501 21.9831 17.492 21.9302C17.3331 21.8772 17.183 21.7952 17.0471 21.6821V21.9621H15.9961V17.0061H17.0471V18.6032C17.1891 18.4932 17.338 18.4072 17.493 18.3492C17.652 18.2902 17.812 18.2622 17.9731 18.2622C18.302 18.2622 18.553 18.3392 18.726 18.4942C18.901 18.6502 18.988 18.8792 18.988 19.1782C18.988 19.1781 18.988 21.2072 18.988 21.2072ZM22.9941 20.0921H21.0541V20.8061C21.0541 21.0051 21.0861 21.1431 21.1531 21.2211C21.2211 21.2981 21.3361 21.3361 21.4971 21.3361C21.6671 21.3361 21.7831 21.3032 21.8511 21.2381C21.9172 21.1721 21.9532 21.0291 21.9532 20.8051V20.6331H22.9962V20.8271C22.9962 21.2151 22.8712 21.5071 22.6131 21.7041C22.3592 21.9001 21.9791 21.998 21.4741 21.998C21.0192 21.998 20.6612 21.894 20.4002 21.6861C20.1402 21.4801 20.0082 21.1921 20.0082 20.8281V19.126C20.0082 18.799 20.1522 18.529 20.4402 18.3221C20.7272 18.1161 21.0952 18.0131 21.5502 18.0131C22.0141 18.0131 22.3711 18.1091 22.6212 18.3001C22.8702 18.4911 22.9942 18.7671 22.9942 19.1251C22.9941 19.1251 22.9941 20.0921 22.9941 20.0921ZM11.4221 13.0122H12.6151V10.1051L14.0041 6.00513H12.7911L12.0531 8.80717H11.977L11.2031 6.00513H10L11.422 10.2361C11.4221 10.2361 11.4221 13.0122 11.4221 13.0122ZM17.482 18.8421L17.261 18.8781L17.0461 18.9892V21.2671C17.1301 21.3261 17.213 21.3712 17.2931 21.3961L17.5441 21.4351C17.6721 21.4351 17.7651 21.41 17.8251 21.3571C17.8841 21.3061 17.9151 21.2221 17.9151 21.1071V19.2181C17.9151 19.0931 17.88 19 17.8061 18.9371C17.7301 18.8742 17.6231 18.8421 17.482 18.8421Z" fill="white"/>
<path d="M21.5535 18.676C21.3915 18.676 21.2765 18.7101 21.2056 18.78C21.1356 18.847 21.1015 18.9611 21.1015 19.12V19.502H21.9985V19.12C21.9985 18.9611 21.9615 18.848 21.8915 18.78C21.8224 18.7101 21.7075 18.676 21.5535 18.676Z" fill="white"/>
</g>
<defs>
<clipPath id="clip0_1_125620">
<rect width="32" height="32" fill="white"/>
</clipPath>
</defs>
</svg>
