<svg width="32" height="32" viewBox="0 0 32 32" fill="none" xmlns="http://www.w3.org/2000/svg">
<g clip-path="url(#clip0_1_125615)">
<path d="M20.7678 8.51367H11.2303C9.70797 8.51367 8.46944 9.7522 8.46944 11.2745V20.812C8.46944 22.3343 9.70797 23.5732 11.2303 23.5732H20.7678C22.2901 23.5732 23.529 22.3347 23.529 20.812V11.2745C23.529 9.7522 22.2904 8.51367 20.7678 8.51367ZM15.999 21.0009C13.2656 21.0009 11.0417 18.777 11.0417 16.0433C11.0417 13.3099 13.2656 11.0859 15.999 11.0859C18.7328 11.0859 20.9567 13.3099 20.9567 16.0433C20.9567 18.7766 18.7324 21.0009 15.999 21.0009ZM21.1161 12.1109C20.469 12.1109 19.9428 11.5847 19.9428 10.938C19.9428 10.2913 20.469 9.76504 21.1161 9.76504C21.7628 9.76504 22.289 10.2913 22.289 10.938C22.289 11.5847 21.7628 12.1109 21.1161 12.1109Z" fill="#6A453B"/>
<path d="M15.9991 13.1804C14.4212 13.1804 13.1363 14.4646 13.1363 16.0425C13.1363 17.6212 14.4212 18.9057 15.9991 18.9057C17.5778 18.9057 18.8616 17.6212 18.8616 16.0425C18.8616 14.4649 17.5774 13.1804 15.9991 13.1804Z" fill="#6A453B"/>
<path d="M16 0C7.1638 0 0 7.1638 0 16C0 24.8362 7.1638 32 16 32C24.8362 32 32 24.8362 32 16C32 7.1638 24.8362 0 16 0ZM25.6245 20.8119C25.6245 23.4896 23.4465 25.6676 20.7687 25.6676H11.2313C8.55384 25.6676 6.37554 23.4896 6.37554 20.8119V11.2744C6.37554 8.59698 8.55384 6.41868 11.2313 6.41868H20.7687C23.4465 6.41868 25.6245 8.59698 25.6245 11.2744V20.8119Z" fill="#6A453B"/>
</g>
<defs>
<clipPath id="clip0_1_125615">
<rect width="32" height="32" fill="white"/>
</clipPath>
</defs>
</svg>
