<svg width="32" height="32" viewBox="0 0 32 32" fill="none" xmlns="http://www.w3.org/2000/svg">
<g clip-path="url(#clip0_1_125762)">
<path d="M23.6684 2.48278C23.4119 1.2254 22.2979 0.275879 20.9655 0.275879C20.6604 0.275879 20.4138 0.5225 20.4138 0.827603C20.4138 1.13271 20.6604 1.37933 20.9655 1.37933C21.8781 1.37933 22.6207 2.12195 22.6207 3.0345C22.6207 3.94705 21.8781 4.68967 20.9655 4.68967C20.6604 4.68967 20.4138 4.93629 20.4138 5.2414C20.4138 5.5465 20.6604 5.79312 20.9655 5.79312C22.2974 5.79312 23.4119 4.8436 23.6684 3.58622H30.8966V8.55174H1.10345V3.58622H8.82759H10.4828C10.7879 3.58622 11.0345 3.3396 11.0345 3.0345C11.0345 2.7294 10.7879 2.48278 10.4828 2.48278H9.48083C9.70924 1.84167 10.3161 1.37933 11.0345 1.37933C11.947 1.37933 12.6897 2.12195 12.6897 3.0345C12.6897 3.94705 11.947 4.68967 11.0345 4.68967C10.7294 4.68967 10.4828 4.93629 10.4828 5.2414C10.4828 5.5465 10.7294 5.79312 11.0345 5.79312C12.5556 5.79312 13.7931 4.5556 13.7931 3.0345C13.7931 1.5134 12.5556 0.275879 11.0345 0.275879C9.70262 0.275879 8.58814 1.2254 8.33159 2.48278H0V9.65519V31.7242H32V9.65519V2.48278H23.6684ZM30.8966 30.6207H1.10345V9.65519H30.8966V30.6207Z" fill="black"/>
<path d="M14.3448 1.37933C15.2574 1.37933 16 2.12195 16 3.0345C16 3.94705 15.2574 4.68967 14.3448 4.68967C14.0397 4.68967 13.7931 4.93629 13.7931 5.2414C13.7931 5.5465 14.0397 5.79312 14.3448 5.79312C15.8659 5.79312 17.1034 4.5556 17.1034 3.0345C17.1034 1.5134 15.8659 0.275879 14.3448 0.275879C14.0397 0.275879 13.7931 0.5225 13.7931 0.827603C13.7931 1.13271 14.0397 1.37933 14.3448 1.37933Z" fill="black"/>
<path d="M17.6552 1.37933C18.5677 1.37933 19.3103 2.12195 19.3103 3.0345C19.3103 3.94705 18.5677 4.68967 17.6552 4.68967C17.3501 4.68967 17.1034 4.93629 17.1034 5.2414C17.1034 5.5465 17.3501 5.79312 17.6552 5.79312C19.1763 5.79312 20.4138 4.5556 20.4138 3.0345C20.4138 1.5134 19.1763 0.275879 17.6552 0.275879C17.3501 0.275879 17.1034 0.5225 17.1034 0.827603C17.1034 1.13271 17.3501 1.37933 17.6552 1.37933Z" fill="black"/>
<path d="M12.1379 14.069C12.4426 14.069 12.6897 13.822 12.6897 13.5173C12.6897 13.2126 12.4426 12.9656 12.1379 12.9656C11.8332 12.9656 11.5862 13.2126 11.5862 13.5173C11.5862 13.822 11.8332 14.069 12.1379 14.069Z" fill="black"/>
<path d="M16 14.069C16.3047 14.069 16.5517 13.822 16.5517 13.5173C16.5517 13.2126 16.3047 12.9656 16 12.9656C15.6953 12.9656 15.4483 13.2126 15.4483 13.5173C15.4483 13.822 15.6953 14.069 16 14.069Z" fill="black"/>
<path d="M19.8621 14.069C20.1668 14.069 20.4138 13.822 20.4138 13.5173C20.4138 13.2126 20.1668 12.9656 19.8621 12.9656C19.5574 12.9656 19.3103 13.2126 19.3103 13.5173C19.3103 13.822 19.5574 14.069 19.8621 14.069Z" fill="black"/>
<path d="M23.7241 14.069C24.0288 14.069 24.2759 13.822 24.2759 13.5173C24.2759 13.2126 24.0288 12.9656 23.7241 12.9656C23.4194 12.9656 23.1724 13.2126 23.1724 13.5173C23.1724 13.822 23.4194 14.069 23.7241 14.069Z" fill="black"/>
<path d="M27.5862 14.069C27.8909 14.069 28.1379 13.822 28.1379 13.5173C28.1379 13.2126 27.8909 12.9656 27.5862 12.9656C27.2815 12.9656 27.0345 13.2126 27.0345 13.5173C27.0345 13.822 27.2815 14.069 27.5862 14.069Z" fill="black"/>
<path d="M4.41379 18.4827C4.7185 18.4827 4.96552 18.2357 4.96552 17.931C4.96552 17.6263 4.7185 17.3793 4.41379 17.3793C4.10908 17.3793 3.86207 17.6263 3.86207 17.931C3.86207 18.2357 4.10908 18.4827 4.41379 18.4827Z" fill="black"/>
<path d="M8.27586 18.4827C8.58057 18.4827 8.82758 18.2357 8.82758 17.931C8.82758 17.6263 8.58057 17.3793 8.27586 17.3793C7.97115 17.3793 7.72414 17.6263 7.72414 17.931C7.72414 18.2357 7.97115 18.4827 8.27586 18.4827Z" fill="black"/>
<path d="M12.1379 18.4827C12.4426 18.4827 12.6897 18.2357 12.6897 17.931C12.6897 17.6263 12.4426 17.3793 12.1379 17.3793C11.8332 17.3793 11.5862 17.6263 11.5862 17.931C11.5862 18.2357 11.8332 18.4827 12.1379 18.4827Z" fill="black"/>
<path d="M16 18.4827C16.3047 18.4827 16.5517 18.2357 16.5517 17.931C16.5517 17.6263 16.3047 17.3793 16 17.3793C15.6953 17.3793 15.4483 17.6263 15.4483 17.931C15.4483 18.2357 15.6953 18.4827 16 18.4827Z" fill="black"/>
<path d="M19.8621 18.4827C20.1668 18.4827 20.4138 18.2357 20.4138 17.931C20.4138 17.6263 20.1668 17.3793 19.8621 17.3793C19.5574 17.3793 19.3103 17.6263 19.3103 17.931C19.3103 18.2357 19.5574 18.4827 19.8621 18.4827Z" fill="black"/>
<path d="M23.7241 18.4827C24.0288 18.4827 24.2759 18.2357 24.2759 17.931C24.2759 17.6263 24.0288 17.3793 23.7241 17.3793C23.4194 17.3793 23.1724 17.6263 23.1724 17.931C23.1724 18.2357 23.4194 18.4827 23.7241 18.4827Z" fill="black"/>
<path d="M27.5862 18.4827C27.8909 18.4827 28.1379 18.2357 28.1379 17.931C28.1379 17.6263 27.8909 17.3793 27.5862 17.3793C27.2815 17.3793 27.0345 17.6263 27.0345 17.931C27.0345 18.2357 27.2815 18.4827 27.5862 18.4827Z" fill="black"/>
<path d="M4.41379 22.3449C4.7185 22.3449 4.96552 22.0979 4.96552 21.7932C4.96552 21.4885 4.7185 21.2415 4.41379 21.2415C4.10908 21.2415 3.86207 21.4885 3.86207 21.7932C3.86207 22.0979 4.10908 22.3449 4.41379 22.3449Z" fill="black"/>
<path d="M8.27586 22.3449C8.58057 22.3449 8.82758 22.0979 8.82758 21.7932C8.82758 21.4885 8.58057 21.2415 8.27586 21.2415C7.97115 21.2415 7.72414 21.4885 7.72414 21.7932C7.72414 22.0979 7.97115 22.3449 8.27586 22.3449Z" fill="black"/>
<path d="M12.1379 22.3449C12.4426 22.3449 12.6897 22.0979 12.6897 21.7932C12.6897 21.4885 12.4426 21.2415 12.1379 21.2415C11.8332 21.2415 11.5862 21.4885 11.5862 21.7932C11.5862 22.0979 11.8332 22.3449 12.1379 22.3449Z" fill="black"/>
<path d="M16 22.3449C16.3047 22.3449 16.5517 22.0979 16.5517 21.7932C16.5517 21.4885 16.3047 21.2415 16 21.2415C15.6953 21.2415 15.4483 21.4885 15.4483 21.7932C15.4483 22.0979 15.6953 22.3449 16 22.3449Z" fill="black"/>
<path d="M19.8621 22.3449C20.1668 22.3449 20.4138 22.0979 20.4138 21.7932C20.4138 21.4885 20.1668 21.2415 19.8621 21.2415C19.5574 21.2415 19.3103 21.4885 19.3103 21.7932C19.3103 22.0979 19.5574 22.3449 19.8621 22.3449Z" fill="black"/>
<path d="M23.7241 22.3449C24.0288 22.3449 24.2759 22.0979 24.2759 21.7932C24.2759 21.4885 24.0288 21.2415 23.7241 21.2415C23.4194 21.2415 23.1724 21.4885 23.1724 21.7932C23.1724 22.0979 23.4194 22.3449 23.7241 22.3449Z" fill="black"/>
<path d="M27.5862 22.3449C27.8909 22.3449 28.1379 22.0979 28.1379 21.7932C28.1379 21.4885 27.8909 21.2415 27.5862 21.2415C27.2815 21.2415 27.0345 21.4885 27.0345 21.7932C27.0345 22.0979 27.2815 22.3449 27.5862 22.3449Z" fill="black"/>
<path d="M4.41379 26.7586C4.7185 26.7586 4.96552 26.5116 4.96552 26.2069C4.96552 25.9022 4.7185 25.6552 4.41379 25.6552C4.10908 25.6552 3.86207 25.9022 3.86207 26.2069C3.86207 26.5116 4.10908 26.7586 4.41379 26.7586Z" fill="black"/>
<path d="M8.27586 26.7586C8.58057 26.7586 8.82758 26.5116 8.82758 26.2069C8.82758 25.9022 8.58057 25.6552 8.27586 25.6552C7.97115 25.6552 7.72414 25.9022 7.72414 26.2069C7.72414 26.5116 7.97115 26.7586 8.27586 26.7586Z" fill="black"/>
<path d="M12.1379 26.7586C12.4426 26.7586 12.6897 26.5116 12.6897 26.2069C12.6897 25.9022 12.4426 25.6552 12.1379 25.6552C11.8332 25.6552 11.5862 25.9022 11.5862 26.2069C11.5862 26.5116 11.8332 26.7586 12.1379 26.7586Z" fill="black"/>
<path d="M16 26.7586C16.3047 26.7586 16.5517 26.5116 16.5517 26.2069C16.5517 25.9022 16.3047 25.6552 16 25.6552C15.6953 25.6552 15.4483 25.9022 15.4483 26.2069C15.4483 26.5116 15.6953 26.7586 16 26.7586Z" fill="black"/>
<path d="M19.8621 26.7586C20.1668 26.7586 20.4138 26.5116 20.4138 26.2069C20.4138 25.9022 20.1668 25.6552 19.8621 25.6552C19.5574 25.6552 19.3103 25.9022 19.3103 26.2069C19.3103 26.5116 19.5574 26.7586 19.8621 26.7586Z" fill="black"/>
</g>
<defs>
<clipPath id="clip0_1_125762">
<rect width="32" height="32" fill="white"/>
</clipPath>
</defs>
</svg>
