<svg width="32" height="32" viewBox="0 0 32 32" fill="none" xmlns="http://www.w3.org/2000/svg">
<g clip-path="url(#clip0_1_125794)">
<path d="M31.9926 10.7566C31.9963 10.7347 31.9984 10.7134 31.9995 10.691C32.0006 10.6649 32 10.6398 31.9979 10.6136C31.9958 10.5912 31.9926 10.5699 31.9872 10.548C31.9814 10.5224 31.9734 10.4979 31.9638 10.4733C31.959 10.4605 31.9579 10.4472 31.952 10.4349C31.9478 10.4259 31.9403 10.4189 31.9355 10.4099C31.9307 10.4008 31.9286 10.3912 31.9232 10.3821L26.5886 1.84679C26.5641 1.80785 26.5353 1.77264 26.5028 1.7417C26.5022 1.74117 26.5017 1.74117 26.5012 1.74064C26.4553 1.69743 26.4009 1.66649 26.3427 1.64195C26.3353 1.63875 26.3305 1.63234 26.3225 1.62914C26.3166 1.62701 26.3102 1.62808 26.3043 1.62648C26.2504 1.60834 26.195 1.59607 26.1368 1.59607H5.86541C5.8078 1.59607 5.75285 1.60834 5.70004 1.62594C5.69417 1.62754 5.6883 1.62648 5.68297 1.62861C5.67497 1.63128 5.67017 1.63768 5.6627 1.64088C5.60722 1.66382 5.55494 1.69369 5.5096 1.73423C5.50693 1.7369 5.50319 1.7385 5.50053 1.74064C5.46745 1.77158 5.43811 1.80732 5.41357 1.84626L0.0789953 10.3816C0.0736607 10.3901 0.0715269 10.4003 0.0667257 10.4093C0.0619246 10.4184 0.0544562 10.4253 0.0501885 10.4344C0.0443205 10.4467 0.0432536 10.46 0.037919 10.4728C0.0283168 10.4973 0.0203149 10.5219 0.0144469 10.5475C0.00964575 10.5694 0.00591155 10.5912 0.00377772 10.6136C4.35119e-05 10.6398 -0.000489946 10.6654 0.00057697 10.691C0.00164389 10.7134 0.00377772 10.7347 0.00751192 10.7566C0.0117796 10.7822 0.0187145 10.8073 0.0272499 10.8324C0.0341848 10.8532 0.0416532 10.8734 0.0512555 10.8937C0.0560566 10.9033 0.057657 10.914 0.0629915 10.9236C0.0715269 10.939 0.0843298 10.9508 0.0939321 10.9652C0.1014 10.9764 0.105668 10.9887 0.114737 10.9993L15.5791 30.1963C15.5802 30.1979 15.5813 30.199 15.5823 30.2001L15.585 30.2038C15.5866 30.2059 15.5893 30.2065 15.5909 30.2086C15.6346 30.2614 15.689 30.3014 15.7483 30.3334C15.7643 30.342 15.7792 30.3494 15.7957 30.3564C15.8603 30.3836 15.9286 30.4028 16 30.4028C16.0609 30.4028 16.1222 30.3921 16.183 30.3703C16.1921 30.3671 16.198 30.3596 16.207 30.3558C16.2342 30.3446 16.2556 30.3265 16.2801 30.311C16.3207 30.2854 16.3585 30.2588 16.39 30.2241C16.3975 30.2161 16.4087 30.2123 16.4156 30.2038L31.8859 10.9993C31.8944 10.9887 31.8987 10.9759 31.9067 10.9652C31.9168 10.9508 31.9291 10.939 31.9376 10.9236C31.943 10.914 31.9446 10.9033 31.9494 10.8937C31.959 10.8734 31.9664 10.8537 31.9734 10.8324C31.9808 10.8073 31.9883 10.7827 31.9926 10.7566ZM17.1214 2.66352H25.3681L22.7755 9.62248L17.1214 2.66352ZM21.8142 10.1319H10.1864L16 2.97666L21.8142 10.1319ZM9.18725 9.66889L6.62719 2.66352H14.8792L9.18725 9.66889ZM22.1882 11.1988L15.9067 28.0593L9.74578 11.1988H22.1882ZM26.2574 3.33194L30.5074 10.1325H23.724L26.2574 3.33194ZM5.73792 3.33888L8.2201 10.1319H1.49266L5.73792 3.33888ZM8.61005 11.1988L14.3922 27.0233L1.64469 11.1988H8.61005ZM17.2787 27.432L23.3266 11.1988H30.3554L17.2787 27.432Z" fill="black"/>
</g>
<defs>
<clipPath id="clip0_1_125794">
<rect width="32" height="32" fill="white"/>
</clipPath>
</defs>
</svg>
