<svg width="20" height="18" viewBox="0 0 20 18" fill="none" xmlns="http://www.w3.org/2000/svg">
<path d="M0 5.85114V14.6756C0 16.0226 1.09388 17.1164 2.44082 17.1164H17.5592C18.9061 17.1164 20 16.0226 20 14.6756V5.85114C20 4.5695 18.9592 3.52869 17.6776 3.52869H14.4286L14.351 3.18991C14.0367 1.83073 12.8408 0.883789 11.4449 0.883789H8.55102C7.15918 0.883789 5.96327 1.83073 5.6449 3.18991L5.56735 3.52869H2.32245C1.04082 3.52869 0 4.57359 0 5.85114ZM5.96735 4.52869C6.2 4.52869 6.4 4.3695 6.45306 4.14093L6.62041 3.4144C6.83265 2.51236 7.62449 1.88379 8.55102 1.88379H11.4449C12.3714 1.88379 13.1633 2.51236 13.3755 3.4144L13.5429 4.14093C13.5959 4.36542 13.7959 4.52869 14.0286 4.52869H17.6735C18.4041 4.52869 18.9959 5.12052 18.9959 5.85114V14.6756C18.9959 15.4715 18.351 16.1164 17.5551 16.1164H2.44082C1.6449 16.1164 1 15.4715 1 14.6756V5.85114C1 5.12052 1.59184 4.52869 2.32245 4.52869H5.96735Z" fill="black"/>
<path d="M3.38374 7.33267C3.75344 7.33267 4.05313 7.03298 4.05313 6.66328C4.05313 6.29359 3.75344 5.9939 3.38374 5.9939C3.01405 5.9939 2.71436 6.29359 2.71436 6.66328C2.71436 7.03298 3.01405 7.33267 3.38374 7.33267Z" fill="black"/>
<path d="M10.0003 14.5492C12.3146 14.5492 14.2003 12.6635 14.2003 10.3492C14.2003 8.03488 12.3146 6.14917 10.0003 6.14917C7.68604 6.14917 5.80032 8.0308 5.80032 10.3492C5.80032 12.6675 7.68604 14.5492 10.0003 14.5492ZM10.0003 7.14917C11.7636 7.14917 13.2003 8.5859 13.2003 10.3492C13.2003 12.1124 11.7636 13.5492 10.0003 13.5492C8.23706 13.5492 6.80032 12.1124 6.80032 10.3492C6.80032 8.5859 8.23706 7.14917 10.0003 7.14917Z" fill="black"/>
</svg>
