<svg width="32" height="20" viewBox="0 0 32 20" fill="none" xmlns="http://www.w3.org/2000/svg">
<path d="M27.6011 5.6547C21.1746 -0.771783 10.7189 -0.771783 4.29243 5.6547L0 9.94659L4.39892 14.3455C7.61189 17.5585 11.8324 19.1655 16.0535 19.1655C20.2746 19.1655 24.4946 17.559 27.7081 14.3455L32.0005 10.0531L27.6011 5.6547ZM26.9432 13.5812C20.9384 19.5855 11.1681 19.5855 5.16324 13.5812L1.52865 9.94659L5.05676 6.41849C11.0616 0.414163 20.8319 0.414163 26.8368 6.41849L30.4714 10.0531L26.9432 13.5812Z" fill="black"/>
<path d="M15.4444 5.65955C13.3579 5.65955 11.6606 7.35684 11.6606 9.44333C11.6606 9.74171 11.9028 9.98387 12.2012 9.98387C12.4996 9.98387 12.7417 9.74171 12.7417 9.44333C12.7417 7.95306 13.9542 6.74063 15.4444 6.74063C15.7428 6.74063 15.985 6.49846 15.985 6.20009C15.985 5.90171 15.7433 5.65955 15.4444 5.65955Z" fill="black"/>
<path d="M15.985 2.95691C12.1104 2.95691 8.95795 6.10934 8.95795 9.98394C8.95795 13.8585 12.1104 17.011 15.985 17.011C19.8596 17.011 23.012 13.8585 23.012 9.98394C23.012 6.10934 19.8601 2.95691 15.985 2.95691ZM15.985 15.9299C12.7066 15.9299 10.039 13.2623 10.039 9.98394C10.039 6.70556 12.7066 4.03799 15.985 4.03799C19.2634 4.03799 21.9309 6.70556 21.9309 9.98394C21.9309 13.2623 19.2639 15.9299 15.985 15.9299Z" fill="black"/>
</svg>
