<svg width="40" height="40" viewBox="0 0 40 40" fill="none" xmlns="http://www.w3.org/2000/svg">
<circle cx="20" cy="20" r="19.5" stroke="#8EE901"/>
<g clip-path="url(#clip0_1_125662)">
<path d="M27.5585 12.3899H12.4457C11.0966 12.3899 10 13.4865 10 14.8356V25.1646C10 26.5136 11.0966 27.6103 12.4457 27.6103H27.5543C28.9034 27.6103 30 26.5136 30 25.1646V14.8397C30.0041 13.4907 28.9075 12.3899 27.5585 12.3899ZM28.8868 25.1646C28.8868 25.897 28.2909 26.4929 27.5585 26.4929H12.4457C11.7132 26.4929 11.1173 25.897 11.1173 25.1646V14.8397C11.1173 14.1073 11.7132 13.5113 12.4457 13.5113H27.5543C28.2868 13.5113 28.8827 14.1073 28.8827 14.8397V25.1646H28.8868Z" fill="#8EE901"/>
<path d="M22.6115 19.8717L27.5029 15.4852C27.7305 15.2783 27.7512 14.9265 27.5442 14.6948C27.3373 14.4672 26.9856 14.4465 26.7538 14.6534L20.0085 20.7076L18.6926 19.5324C18.6885 19.5282 18.6843 19.5241 18.6843 19.5199C18.6554 19.491 18.6264 19.4661 18.5933 19.4413L13.2384 14.6493C13.0067 14.4424 12.6549 14.463 12.448 14.6948C12.2411 14.9265 12.2618 15.2783 12.4935 15.4852L17.4429 19.9089L12.5142 24.523C12.2908 24.7341 12.2784 25.0858 12.4894 25.3134C12.6011 25.4293 12.7501 25.4914 12.8991 25.4914C13.0357 25.4914 13.1722 25.4417 13.2798 25.3424L18.2829 20.6621L19.6402 21.8746C19.7478 21.9698 19.8803 22.0153 20.0127 22.0153C20.1451 22.0153 20.2817 21.9656 20.3851 21.8704L21.7797 20.6207L26.7538 25.3466C26.8614 25.45 27.0021 25.4997 27.1387 25.4997C27.2877 25.4997 27.4325 25.4417 27.5442 25.3259C27.7553 25.1024 27.747 24.7465 27.5236 24.5355L22.6115 19.8717Z" fill="#8EE901"/>
</g>
<defs>
<clipPath id="clip0_1_125662">
<rect width="20" height="20" fill="white" transform="translate(10 10)"/>
</clipPath>
</defs>
</svg>
