<svg width="48" height="48" viewBox="0 0 48 48" fill="none" xmlns="http://www.w3.org/2000/svg">
<g clip-path="url(#clip0_1_125564)">
<path d="M48.0002 24.0001C48.0002 31.9239 41.6002 38.4001 33.6002 38.4001C25.6764 38.4001 19.2002 31.9239 19.2002 24.0001C19.2002 16.0763 25.6002 9.6001 33.524 9.6001C41.6002 9.6001 48.0002 16.0763 48.0002 24.0001Z" fill="#FFB600"/>
<path d="M33.6002 9.6001C41.524 9.6001 48.0002 16.0763 48.0002 24.0001C48.0002 31.9239 41.6002 38.4001 33.6002 38.4001C25.6764 38.4001 19.2002 31.9239 19.2002 24.0001" fill="#F7981D"/>
<path d="M33.6 9.6001C41.5238 9.6001 48 16.0763 48 24.0001C48 31.9239 41.6 38.4001 33.6 38.4001" fill="#FF8500"/>
<path d="M14.2476 9.6001C6.4 9.67629 0 16.0763 0 24.0001C0 31.9239 6.4 38.4001 14.4 38.4001C18.1333 38.4001 21.4857 36.9525 24.0762 34.6668C24.6095 34.2096 25.0667 33.6763 25.5238 33.143H22.5524C22.1714 32.6858 21.7905 32.1525 21.4857 31.6953H26.5905C26.8952 31.2382 27.2 30.7049 27.4286 30.1715H20.6476C20.419 29.7144 20.1905 29.181 20.0381 28.6477H27.9619C28.419 27.2001 28.7238 25.6763 28.7238 24.0763C28.7238 23.0096 28.5714 22.0191 28.419 21.0287H19.581C19.6571 20.4953 19.8095 20.0382 19.9619 19.5049H27.8857C27.7333 18.9715 27.5048 18.4382 27.2762 17.981H20.5714C20.8 17.4477 21.1048 16.9906 21.4095 16.4572H26.5143C26.2095 15.9239 25.8286 15.3906 25.3714 14.9334H22.5524C23.0095 14.4001 23.4667 13.943 24 13.4858C21.4857 11.1239 18.0571 9.75248 14.3238 9.75248C14.3238 9.6001 14.3238 9.6001 14.2476 9.6001Z" fill="#FF5050"/>
<path d="M0 24.0001C0 31.9239 6.4 38.4001 14.4 38.4001C18.1333 38.4001 21.4857 36.9524 24.0762 34.6667C24.6095 34.2096 25.0667 33.6762 25.5238 33.1429H22.5524C22.1714 32.6858 21.7905 32.1524 21.4857 31.6953H26.5905C26.8952 31.2381 27.2 30.7048 27.4286 30.1715H20.6476C20.419 29.7143 20.1905 29.181 20.0381 28.6477H27.9619C28.419 27.2001 28.7238 25.6762 28.7238 24.0762C28.7238 23.0096 28.5714 22.0191 28.419 21.0286H19.581C19.6571 20.4953 19.8095 20.0382 19.9619 19.5048H27.8857C27.7333 18.9715 27.5048 18.4382 27.2762 17.981H20.5714C20.8 17.4477 21.1048 16.9905 21.4095 16.4572H26.5143C26.2095 15.9239 25.8286 15.3905 25.3714 14.9334H22.5524C23.0095 14.4001 23.4667 13.9429 24 13.4858C21.4857 11.1239 18.0571 9.75244 14.3238 9.75244H14.2476" fill="#E52836"/>
<path d="M14.3991 38.4001C18.1324 38.4001 21.4848 36.9524 24.0752 34.6667C24.6086 34.2096 25.0657 33.6762 25.5229 33.1429H22.5514C22.1705 32.6858 21.7895 32.1524 21.4848 31.6953H26.5895C26.8943 31.2381 27.1991 30.7048 27.4276 30.1715H20.6467C20.4181 29.7143 20.1895 29.181 20.0371 28.6477H27.961C28.4181 27.2001 28.7229 25.6762 28.7229 24.0762C28.7229 23.0096 28.5705 22.0191 28.4181 21.0286H19.58C19.6562 20.4953 19.8086 20.0382 19.961 19.5048H27.8848C27.7324 18.9715 27.5038 18.4382 27.2752 17.981H20.5705C20.7991 17.4477 21.1038 16.9905 21.4086 16.4572H26.5133C26.2086 15.9239 25.8276 15.3905 25.3705 14.9334H22.5514C23.0086 14.4001 23.4657 13.9429 23.9991 13.4858C21.4848 11.1239 18.0562 9.75244 14.3229 9.75244H14.2467" fill="#CB2026"/>
<path d="M19.5056 27.6572L19.7341 26.3619C19.658 26.3619 19.5056 26.4381 19.3532 26.4381C18.8199 26.4381 18.7437 26.1333 18.8199 25.981L19.277 23.3143H20.1151L20.3437 21.8667H19.5818L19.7341 20.9524H18.2103C18.2103 20.9524 17.2961 25.981 17.2961 26.5905C17.2961 27.5048 17.8294 27.8857 18.5151 27.8857C18.9722 27.8857 19.3532 27.7333 19.5056 27.6572Z" fill="white"/>
<path d="M20.0389 25.219C20.0389 27.3523 21.4866 27.8856 22.7056 27.8856C23.8485 27.8856 24.3056 27.6571 24.3056 27.6571L24.6104 26.2094C24.6104 26.2094 23.7723 26.5904 23.0104 26.5904C21.3342 26.5904 21.6389 25.3714 21.6389 25.3714H24.7628C24.7628 25.3714 24.9913 24.3809 24.9913 23.9999C24.9913 23.0094 24.458 21.7904 22.7818 21.7904C21.1818 21.638 20.0389 23.3142 20.0389 25.219ZM22.7056 23.0095C23.5437 23.0095 23.3913 23.9999 23.3913 24.0761H21.7151C21.7151 23.9999 21.8675 23.0095 22.7056 23.0095Z" fill="white"/>
<path d="M32.3812 27.6571L32.6859 25.9809C32.6859 25.9809 31.924 26.3618 31.3907 26.3618C30.324 26.3618 29.8669 25.5237 29.8669 24.6095C29.8669 22.7809 30.7811 21.7904 31.8478 21.7904C32.6097 21.7904 33.2192 22.2476 33.2192 22.2476L33.4478 20.6476C33.4478 20.6476 32.5335 20.2666 31.6954 20.2666C29.9431 20.2666 28.1907 21.7904 28.1907 24.6856C28.1907 26.5904 29.105 27.8856 30.9335 27.8856C31.5431 27.8856 32.3812 27.6571 32.3812 27.6571Z" fill="white"/>
<path d="M11.1248 21.6379C10.0581 21.6379 9.29622 21.9427 9.29622 21.9427L9.06765 23.2379C9.06765 23.2379 9.75336 22.9332 10.7438 22.9332C11.2772 22.9332 11.7343 23.0094 11.7343 23.4665C11.7343 23.7713 11.6581 23.8475 11.6581 23.8475C11.6581 23.8475 11.201 23.8475 10.9724 23.8475C9.67717 23.8475 8.22955 24.3808 8.22955 26.1332C8.22955 27.5046 9.14384 27.8094 9.67717 27.8094C10.7438 27.8094 11.201 27.1237 11.2772 27.1237L11.201 27.7332H12.5724L13.1819 23.5427C13.1819 21.7141 11.6581 21.6379 11.1248 21.6379ZM11.4296 25.0665C11.4296 25.2951 11.2772 26.5141 10.3629 26.5141C9.90574 26.5141 9.75336 26.1332 9.75336 25.9046C9.75336 25.5237 9.98193 24.9903 11.1248 24.9903C11.3534 25.0665 11.4296 25.0665 11.4296 25.0665Z" fill="white"/>
<path d="M14.6292 27.8094C15.0102 27.8094 16.915 27.8856 16.915 25.8284C16.915 23.9237 15.0864 24.3046 15.0864 23.5427C15.0864 23.1618 15.3911 23.0094 15.9245 23.0094C16.153 23.0094 16.9911 23.0856 16.9911 23.0856L17.2197 21.7141C17.2197 21.7141 16.6864 21.5618 15.7721 21.5618C14.6292 21.5618 13.4864 22.0189 13.4864 23.5427C13.4864 25.2951 15.3911 25.1427 15.3911 25.8284C15.3911 26.2856 14.8578 26.3618 14.4769 26.3618C13.7911 26.3618 13.1054 26.1332 13.1054 26.1332L12.8769 27.5046C12.9531 27.657 13.334 27.8094 14.6292 27.8094Z" fill="white"/>
<path d="M45.0296 20.4189L44.7249 22.4761C44.7249 22.4761 44.1153 21.7142 43.2772 21.7142C41.9058 21.7142 40.6868 23.3904 40.6868 25.3713C40.6868 26.5904 41.2963 27.8856 42.5915 27.8856C43.5058 27.8856 44.0391 27.2761 44.0391 27.2761L43.963 27.8094H45.4868L46.6296 20.4951L45.0296 20.4189ZM44.3439 24.457C44.3439 25.2951 43.963 26.3618 43.1249 26.3618C42.5915 26.3618 42.2868 25.9047 42.2868 25.1428C42.2868 23.9237 42.8201 23.1618 43.5058 23.1618C44.0391 23.1618 44.3439 23.5428 44.3439 24.457Z" fill="white"/>
<path d="M2.8199 27.7332L3.73419 22.2475L3.88657 27.7332H4.95324L6.93419 22.2475L6.09609 27.7332H7.69609L8.91514 20.4189H6.40085L4.87705 24.9142L4.80085 20.4189H2.59133L1.37228 27.7332H2.8199Z" fill="white"/>
<path d="M26.4375 27.7334C26.8947 25.2191 26.9709 23.162 28.0375 23.5429C28.1899 22.5524 28.4185 22.1715 28.5709 21.7905C28.5709 21.7905 28.4947 21.7905 28.2661 21.7905C27.5804 21.7905 27.0471 22.7048 27.0471 22.7048L27.1994 21.8667H25.7518L24.7614 27.8096H26.4375V27.7334Z" fill="white"/>
<path d="M35.8863 21.6379C34.8197 21.6379 34.0578 21.9427 34.0578 21.9427L33.8292 23.2379C33.8292 23.2379 34.5149 22.9332 35.5054 22.9332C36.0387 22.9332 36.4959 23.0094 36.4959 23.4665C36.4959 23.7713 36.4197 23.8475 36.4197 23.8475C36.4197 23.8475 35.9625 23.8475 35.7339 23.8475C34.4387 23.8475 32.9911 24.3808 32.9911 26.1332C32.9911 27.5046 33.9054 27.8094 34.4387 27.8094C35.5054 27.8094 35.9625 27.1237 36.0387 27.1237L35.9625 27.7332H37.3339L37.9435 23.5427C38.0197 21.7141 36.4197 21.6379 35.8863 21.6379ZM36.2673 25.0665C36.2673 25.2951 36.1149 26.5141 35.2006 26.5141C34.7435 26.5141 34.5911 26.1332 34.5911 25.9046C34.5911 25.5237 34.8197 24.9903 35.9625 24.9903C36.1911 25.0665 36.1911 25.0665 36.2673 25.0665Z" fill="white"/>
<path d="M39.2377 27.7334C39.6948 25.2191 39.771 23.162 40.8377 23.5429C40.99 22.5524 41.2186 22.1715 41.371 21.7905C41.371 21.7905 41.2948 21.7905 41.0662 21.7905C40.3805 21.7905 39.8472 22.7048 39.8472 22.7048L39.9996 21.8667H38.5519L37.5615 27.8096H39.2377V27.7334Z" fill="white"/>
<path d="M17.1442 26.5905C17.1442 27.5048 17.6775 27.8857 18.3632 27.8857C18.8965 27.8857 19.3537 27.7333 19.5061 27.6572L19.7346 26.3619C19.6585 26.3619 19.5061 26.4381 19.3537 26.4381C18.8204 26.4381 18.7442 26.1333 18.8204 25.981L19.2775 23.3143H20.1156L20.3442 21.8667H19.5823L19.7346 20.9524" fill="#DCE5E5"/>
<path d="M20.8013 25.219C20.8013 27.3523 21.487 27.8856 22.706 27.8856C23.8489 27.8856 24.306 27.6571 24.306 27.6571L24.6108 26.2094C24.6108 26.2094 23.7727 26.5904 23.0108 26.5904C21.3346 26.5904 21.6394 25.3714 21.6394 25.3714H24.7632C24.7632 25.3714 24.9918 24.3809 24.9918 23.9999C24.9918 23.0094 24.4584 21.7904 22.7822 21.7904C21.1822 21.638 20.8013 23.3142 20.8013 25.219ZM22.706 23.0095C23.5441 23.0095 23.6965 23.9999 23.6965 24.0761H21.7156C21.7156 23.9999 21.8679 23.0095 22.706 23.0095Z" fill="#DCE5E5"/>
<path d="M32.3816 27.6571L32.6863 25.9809C32.6863 25.9809 31.9244 26.3618 31.3911 26.3618C30.3244 26.3618 29.8673 25.5237 29.8673 24.6095C29.8673 22.7809 30.7816 21.7904 31.8482 21.7904C32.6101 21.7904 33.2197 22.2476 33.2197 22.2476L33.4482 20.6476C33.4482 20.6476 32.534 20.2666 31.6959 20.2666C29.9435 20.2666 28.953 21.7904 28.953 24.6856C28.953 26.5904 29.1054 27.8856 30.934 27.8856C31.5435 27.8856 32.3816 27.6571 32.3816 27.6571Z" fill="#DCE5E5"/>
<path d="M9.06765 23.3143C9.06765 23.3143 9.75336 23.0096 10.7438 23.0096C11.2772 23.0096 11.7343 23.0858 11.7343 23.5429C11.7343 23.8477 11.6581 23.9239 11.6581 23.9239C11.6581 23.9239 11.201 23.9239 10.9724 23.9239C9.67717 23.9239 8.22955 24.4572 8.22955 26.2096C8.22955 27.581 9.14384 27.8858 9.67717 27.8858C10.7438 27.8858 11.201 27.2001 11.2772 27.2001L11.201 27.8096H12.5724L13.1819 23.6191C13.1819 21.8667 11.6581 21.7905 11.0486 21.7905L9.06765 23.3143ZM12.1915 25.0667C12.1915 25.2953 11.2772 26.5143 10.3629 26.5143C9.90574 26.5143 9.75336 26.1334 9.75336 25.9048C9.75336 25.5239 9.98193 24.9905 11.1248 24.9905C11.3534 25.0667 12.1915 25.0667 12.1915 25.0667Z" fill="#DCE5E5"/>
<path d="M12.9518 27.657C12.9518 27.657 13.409 27.8094 14.7042 27.8094C15.0852 27.8094 16.9899 27.8856 16.9899 25.8284C16.9899 23.9237 15.1614 24.3046 15.1614 23.5427C15.1614 23.1618 15.4661 23.0094 15.9995 23.0094C16.228 23.0094 17.0661 23.0856 17.0661 23.0856L17.2947 21.7141C17.2947 21.7141 16.7614 21.5618 15.8471 21.5618C14.7042 21.5618 14.3233 22.0189 14.3233 23.5427C14.3233 25.2951 15.4661 25.1427 15.4661 25.8284C15.4661 26.2856 14.9328 26.3618 14.5518 26.3618" fill="#DCE5E5"/>
<path d="M44.7245 22.4761C44.7245 22.4761 44.1149 21.7142 43.2768 21.7142C41.9054 21.7142 41.4483 23.3904 41.4483 25.3713C41.4483 26.5903 41.2959 27.8856 42.5911 27.8856C43.5054 27.8856 44.0388 27.2761 44.0388 27.2761L43.9626 27.8094H45.4864L46.6292 20.4951L44.7245 22.4761ZM44.6483 24.457C44.6483 25.2951 43.9626 26.3618 43.1245 26.3618C42.5911 26.3618 42.2864 25.9046 42.2864 25.1427C42.2864 23.9237 42.8197 23.1618 43.5054 23.1618C44.0388 23.1618 44.6483 23.5427 44.6483 24.457Z" fill="#DCE5E5"/>
<path d="M2.8199 27.7332L3.73419 22.2475L3.88657 27.7332H4.95324L6.93419 22.2475L6.09609 27.7332H7.69609L8.91514 20.4189H7.01038L4.87705 24.9142L4.80085 20.4189H3.96276L1.37228 27.7332H2.8199Z" fill="#DCE5E5"/>
<path d="M24.8392 27.7334H26.4392C26.8964 25.2191 26.9726 23.162 28.0392 23.5429C28.1916 22.5524 28.4202 22.1715 28.5726 21.7905C28.5726 21.7905 28.4964 21.7905 28.2678 21.7905C27.5821 21.7905 27.0488 22.7048 27.0488 22.7048L27.2011 21.8667" fill="#DCE5E5"/>
<path d="M33.8292 23.3143C33.8292 23.3143 34.5149 23.0096 35.5054 23.0096C36.0387 23.0096 36.4959 23.0858 36.4959 23.5429C36.4959 23.8477 36.4197 23.9239 36.4197 23.9239C36.4197 23.9239 35.9625 23.9239 35.7339 23.9239C34.4387 23.9239 32.9911 24.4572 32.9911 26.2096C32.9911 27.581 33.9054 27.8858 34.4387 27.8858C35.5054 27.8858 35.9625 27.2001 36.0387 27.2001L35.9625 27.8096H37.334L37.9435 23.6191C37.9435 21.8667 36.4197 21.7905 35.8101 21.7905L33.8292 23.3143ZM36.953 25.0667C36.953 25.2953 36.0387 26.5143 35.1244 26.5143C34.6673 26.5143 34.5149 26.1334 34.5149 25.9048C34.5149 25.5239 34.7435 24.9905 35.8863 24.9905C36.1911 25.0667 36.953 25.0667 36.953 25.0667Z" fill="#DCE5E5"/>
<path d="M37.6392 27.7334H39.2392C39.6963 25.2191 39.7725 23.162 40.8392 23.5429C40.9916 22.5524 41.2201 22.1715 41.3725 21.7905C41.3725 21.7905 41.2963 21.7905 41.0678 21.7905C40.382 21.7905 39.8487 22.7048 39.8487 22.7048L40.0011 21.8667" fill="#DCE5E5"/>
</g>
<defs>
<clipPath id="clip0_1_125564">
<rect width="48" height="48" fill="white"/>
</clipPath>
</defs>
</svg>
