<svg width="20" height="20" viewBox="0 0 20 20" fill="none" xmlns="http://www.w3.org/2000/svg">
<g clip-path="url(#clip0_1_125649)">
<path d="M15.8066 12.3892C15.3972 11.9628 14.9033 11.7349 14.3799 11.7349C13.8607 11.7349 13.3626 11.9586 12.9362 12.385L11.6024 13.7146C11.4926 13.6555 11.3829 13.6006 11.2773 13.5458C11.1254 13.4698 10.9819 13.398 10.8595 13.3221C9.60999 12.5285 8.47451 11.4943 7.38545 10.1562C6.85781 9.48926 6.50324 8.92785 6.24575 8.358C6.59188 8.04141 6.91269 7.71216 7.22505 7.39558C7.34324 7.27739 7.46143 7.15497 7.57963 7.03678C8.46606 6.15034 8.46606 5.00219 7.57963 4.11576L6.42725 2.96338C6.2964 2.83253 6.16132 2.69745 6.03469 2.56238C5.78142 2.30067 5.51549 2.03051 5.24112 1.77725C4.83167 1.37202 4.34201 1.15674 3.82703 1.15674C3.31206 1.15674 2.81396 1.37202 2.39185 1.77725C2.38763 1.78147 2.38763 1.78147 2.38341 1.78569L0.948218 3.23354C0.407913 3.77384 0.0997696 4.43234 0.0322314 5.19637C-0.0690759 6.42894 0.293942 7.57709 0.572537 8.32845C1.25636 10.1731 2.27788 11.8826 3.80171 13.7146C5.65057 15.9223 7.8751 17.6656 10.4162 18.894C11.3871 19.3541 12.683 19.8986 14.1308 19.9914C14.2195 19.9957 14.3123 19.9999 14.3968 19.9999C15.3718 19.9999 16.1907 19.6495 16.8324 18.9531C16.8366 18.9446 16.845 18.9404 16.8492 18.9319C17.0687 18.666 17.322 18.4254 17.5879 18.1679C17.7695 17.9949 17.9552 17.8133 18.1367 17.6234C18.5546 17.1886 18.7741 16.6821 18.7741 16.1629C18.7741 15.6395 18.5504 15.1371 18.124 14.715L15.8066 12.3892ZM17.3178 16.834C17.3136 16.834 17.3136 16.8383 17.3178 16.834C17.1532 17.0113 16.9843 17.1717 16.8028 17.349C16.5284 17.6107 16.2498 17.8851 15.9881 18.1932C15.5618 18.6491 15.0595 18.8644 14.401 18.8644C14.3377 18.8644 14.2701 18.8644 14.2068 18.8602C12.9531 18.78 11.7881 18.2903 10.9143 17.8724C8.52516 16.7158 6.42726 15.0738 4.68393 12.9928C3.24452 11.2579 2.2821 9.65389 1.64471 7.93166C1.25214 6.8806 1.10862 6.0617 1.17194 5.28923C1.21415 4.79536 1.4041 4.38591 1.75446 4.03555L3.19386 2.59615C3.4007 2.40197 3.6202 2.29645 3.83548 2.29645C4.10141 2.29645 4.31669 2.45685 4.45176 2.59192C4.45598 2.59615 4.4602 2.60037 4.46443 2.60459C4.72192 2.84519 4.96674 3.09424 5.22423 3.36017C5.35509 3.49525 5.49016 3.63032 5.62524 3.76962L6.77761 4.92199C7.22505 5.36943 7.22505 5.7831 6.77761 6.23055C6.6552 6.35296 6.537 6.47537 6.41459 6.59356C6.06002 6.95658 5.72233 7.29427 5.35509 7.62352C5.34664 7.63196 5.3382 7.63618 5.33398 7.64463C4.97096 8.00764 5.0385 8.36222 5.11448 8.60282C5.1187 8.61549 5.12292 8.62815 5.12714 8.64081C5.42685 9.36685 5.84896 10.0507 6.49057 10.8654L6.49479 10.8696C7.65983 12.3048 8.88818 13.4234 10.2432 14.2803C10.4162 14.39 10.5935 14.4786 10.7624 14.5631C10.9143 14.639 11.0578 14.7108 11.1803 14.7868C11.1971 14.7952 11.214 14.8079 11.2309 14.8163C11.3744 14.8881 11.5095 14.9219 11.6488 14.9219C11.9992 14.9219 12.2187 14.7024 12.2904 14.6306L13.734 13.187C13.8776 13.0435 14.1055 12.8704 14.3714 12.8704C14.6331 12.8704 14.8484 13.035 14.9793 13.1785C14.9835 13.1828 14.9835 13.1828 14.9877 13.187L17.3136 15.5128C17.7483 15.9434 17.7483 16.3866 17.3178 16.834Z" fill="#8EE901"/>
<path d="M10.8102 4.7574C11.9162 4.94313 12.9208 5.46656 13.7228 6.26857C14.5248 7.07059 15.044 8.07522 15.234 9.18116C15.2804 9.45975 15.521 9.65392 15.7954 9.65392C15.8292 9.65392 15.8587 9.6497 15.8925 9.64548C16.2049 9.59483 16.4117 9.29935 16.361 8.98698C16.1331 7.64888 15.4999 6.42897 14.5333 5.46233C13.5666 4.49569 12.3467 3.86252 11.0086 3.63458C10.6962 3.58393 10.405 3.79076 10.3501 4.09891C10.2952 4.40705 10.4979 4.70675 10.8102 4.7574Z" fill="#8EE901"/>
<path d="M19.9772 8.82242C19.6015 6.61899 18.5631 4.61395 16.9675 3.01836C15.3719 1.42277 13.3669 0.384369 11.1635 0.00868772C10.8553 -0.0461871 10.5641 0.16487 10.5092 0.473013C10.4585 0.785377 10.6654 1.07664 10.9777 1.13151C12.9448 1.46498 14.7388 2.39785 16.1655 3.82037C17.5922 5.24712 18.5209 7.0411 18.8544 9.00815C18.9008 9.28675 19.1414 9.48092 19.4158 9.48092C19.4495 9.48092 19.4791 9.4767 19.5129 9.47248C19.821 9.42604 20.0321 9.13056 19.9772 8.82242Z" fill="#8EE901"/>
</g>
<defs>
<clipPath id="clip0_1_125649">
<rect width="20" height="20" fill="white"/>
</clipPath>
</defs>
</svg>
