<svg width="32" height="32" viewBox="0 0 32 32" fill="none" xmlns="http://www.w3.org/2000/svg">
<path d="M29.3061 15.0672C29.3157 15.0304 29.3269 14.9952 29.3285 14.9568C29.3291 14.9488 29.3333 14.9419 29.3333 14.9333C29.3333 7.76 23.6389 1.89493 16.5333 1.61333V0.533333C16.5333 0.2384 16.2944 0 16 0C15.7056 0 15.4667 0.2384 15.4667 0.533333V1.61333C8.36107 1.89493 2.66667 7.76 2.66667 14.9333C2.66667 14.9419 2.67094 14.9488 2.67147 14.9573C2.67307 14.9952 2.68374 15.0304 2.69387 15.0677C2.70241 15.0992 2.7072 15.1307 2.72054 15.1595C2.73387 15.1877 2.75467 15.2112 2.77281 15.2368C2.79521 15.2683 2.81601 15.2997 2.84481 15.3259C2.85067 15.3312 2.85334 15.3392 2.85974 15.3445C2.87894 15.3605 2.90241 15.3659 2.92267 15.3787C2.95414 15.3984 2.98401 15.4181 3.01974 15.4309C3.05707 15.4448 3.09494 15.4491 3.13334 15.4539C3.15627 15.456 3.17654 15.4667 3.20001 15.4667C3.20801 15.4667 3.21441 15.4624 3.22241 15.4624C3.26294 15.4608 3.30081 15.4496 3.33974 15.4389C3.36854 15.4309 3.39787 15.4267 3.42401 15.4139C3.45441 15.4 3.47947 15.3776 3.50721 15.3579C3.53654 15.3365 3.5664 15.3168 3.59094 15.2901C3.59681 15.2837 3.60481 15.2811 3.61067 15.2741C4.36267 14.3664 5.35361 13.8667 6.40001 13.8667C7.44641 13.8667 8.43734 14.3664 9.18934 15.2741C9.19947 15.2864 9.21494 15.2912 9.22614 15.3024C9.23894 15.3152 9.24534 15.3323 9.25974 15.344C9.28107 15.3616 9.30667 15.368 9.32907 15.3819C9.35627 15.3984 9.38134 15.4149 9.41014 15.4256C9.45387 15.4427 9.49761 15.4496 9.54294 15.4544C9.56267 15.4565 9.58081 15.4667 9.60001 15.4667C9.60854 15.4667 9.61654 15.4629 9.62454 15.4624C9.65174 15.4613 9.67681 15.4544 9.70347 15.4491C9.74027 15.4416 9.77547 15.4331 9.81014 15.4176C9.8368 15.4059 9.86081 15.3909 9.88534 15.3744C9.90294 15.3632 9.92267 15.3573 9.93921 15.3435C9.95201 15.3328 9.95787 15.3179 9.96961 15.3061C9.98187 15.2939 9.99841 15.2875 10.0096 15.2736C10.7627 14.3664 11.7536 13.8667 12.8 13.8667C13.792 13.8667 14.7307 14.32 15.4667 15.1392V29.3333C15.4667 30.2155 14.7488 30.9333 13.8667 30.9333C12.9845 30.9333 12.2667 30.2155 12.2667 29.3333C12.2667 29.0384 12.0277 28.8 11.7333 28.8C11.4389 28.8 11.2 29.0384 11.2 29.3333C11.2 30.8037 12.3963 32 13.8667 32C15.3371 32 16.5333 30.8037 16.5333 29.3333V15.1392C17.2693 14.32 18.208 13.8667 19.2 13.8667C20.2464 13.8667 21.2373 14.3664 21.9893 15.2741C21.9995 15.2864 22.0149 15.2912 22.0261 15.3024C22.0389 15.3152 22.0453 15.3323 22.0597 15.344C22.0811 15.3616 22.1067 15.3675 22.1291 15.3813C22.1563 15.3979 22.1813 15.4144 22.2107 15.4256C22.2539 15.4421 22.2976 15.4496 22.3435 15.4544C22.3627 15.4565 22.3808 15.4667 22.4 15.4667C22.4085 15.4667 22.4165 15.4629 22.4245 15.4624C22.4517 15.4613 22.4773 15.4544 22.504 15.4485C22.5403 15.4411 22.5755 15.4325 22.6101 15.4176C22.6373 15.4059 22.6613 15.3904 22.6859 15.3744C22.7035 15.3632 22.7232 15.3573 22.7397 15.344C22.7525 15.3333 22.7584 15.3184 22.7696 15.3067C22.7819 15.2944 22.7984 15.288 22.8101 15.2741C23.5627 14.3664 24.5536 13.8667 25.6 13.8667C26.6464 13.8667 27.6373 14.3664 28.3893 15.2741C28.3947 15.2805 28.4021 15.2821 28.408 15.2885C28.4453 15.3296 28.4901 15.3605 28.5387 15.3888C28.5552 15.3984 28.568 15.4128 28.5856 15.4203C28.6512 15.4491 28.7232 15.4667 28.8 15.4667C28.8656 15.4667 28.9307 15.4523 28.9925 15.4277C29.0165 15.4181 29.0363 15.4027 29.0587 15.3899C29.0859 15.3744 29.1152 15.3643 29.1397 15.3435C29.1461 15.3381 29.1488 15.3307 29.1547 15.3248C29.1835 15.2987 29.2037 15.2677 29.2267 15.2357C29.2448 15.2101 29.2656 15.1861 29.2789 15.1584C29.2928 15.1301 29.2981 15.0987 29.3061 15.0672ZM25.6 12.8C24.4171 12.8 23.3003 13.2773 22.4 14.1515C21.4997 13.2773 20.3829 12.8 19.2 12.8C18.0171 12.8 16.9003 13.2773 16 14.1515C15.0997 13.2773 13.9829 12.8 12.8 12.8C11.6171 12.8 10.5003 13.2773 9.60001 14.1515C8.69974 13.2773 7.58294 12.8 6.40001 12.8C5.46667 12.8 4.57707 13.1019 3.80001 13.656C4.44107 7.49013 9.66774 2.66667 16 2.66667C22.3323 2.66667 27.5589 7.49013 28.2 13.656C27.4229 13.1019 26.5333 12.8 25.6 12.8Z" fill="black"/>
</svg>
