<svg width="16" height="20" viewBox="0 0 16 20" fill="none" xmlns="http://www.w3.org/2000/svg">
<path d="M12.6251 12.9868C12.6092 12.9851 10.307 13.053 9.96467 10.5859C10.345 10.3205 10.6956 9.97602 11.0044 9.55797C11.6052 8.74469 11.9923 7.72445 12.1302 6.6209C12.1776 6.57805 12.2168 6.52473 12.2432 6.46187C12.4927 5.86754 12.6192 5.23293 12.6192 4.57559C12.6192 2.05262 10.716 0 8.37659 0C7.76475 0 7.17116 0.140937 6.61053 0.419258C6.39667 0.435586 6.1871 0.473203 5.98612 0.53125C5.0253 0.808867 4.24343 1.52125 3.78448 2.53727C3.33893 3.52375 3.25112 4.68504 3.53729 5.80727C3.59776 6.04434 3.67464 6.2773 3.76581 6.49988C3.7905 6.56008 3.82729 6.61145 3.87147 6.65371C4.09483 8.37617 4.9144 9.80332 6.0319 10.5825C5.68854 13.0538 3.38714 12.9852 3.37128 12.9869C1.71573 13.0431 0.385925 14.4065 0.385925 16.0755V19.5497C0.385925 19.7984 0.587527 20 0.836238 20H4.79057H11.2057H15.1601C15.4088 20 15.6105 19.7984 15.6105 19.5497V16.0755C15.6104 14.4064 14.2807 13.043 12.6251 12.9868ZM6.23616 1.39652C6.4005 1.34902 6.57405 1.32086 6.75202 1.31285C6.81807 1.30988 6.88264 1.29242 6.9412 1.26164C7.3971 1.02211 7.88007 0.900664 8.37663 0.900664C10.2194 0.900664 11.7186 2.54922 11.7186 4.57559C11.7186 4.63641 11.7169 4.69691 11.7142 4.75719C11.3568 4.39422 10.8602 4.16863 10.3118 4.16863H7.24261C7.05999 4.16863 6.88667 4.11129 6.74132 4.00277C6.61721 3.91016 6.52128 3.78566 6.46397 3.64277C6.37522 3.42176 6.15639 3.28352 5.91819 3.29848C5.67913 3.31371 5.47796 3.47973 5.41757 3.71172C5.23971 4.39516 4.88507 5.02469 4.3985 5.5352C3.94577 3.67195 4.76284 1.82219 6.23616 1.39652ZM5.84436 9.18516C5.25839 8.4693 4.87464 7.50262 4.753 6.4443C5.32124 5.93785 5.77046 5.30762 6.06292 4.60855C6.10729 4.64949 6.15389 4.6882 6.20257 4.72457C6.50475 4.95008 6.86436 5.06934 7.24264 5.06934H10.3118C10.7461 5.06934 11.1204 5.3298 11.2874 5.70258C11.2874 5.70578 11.2869 5.70883 11.2869 5.71203C11.2869 8.25414 9.8119 10.3223 7.99886 10.3223C7.20979 10.3223 6.4446 9.91848 5.84436 9.18516ZM6.87909 11.0247C7.23608 11.1539 7.61159 11.223 7.99886 11.223C8.38303 11.223 8.75839 11.1561 9.11772 11.0271C9.28261 11.8861 9.76022 12.6348 10.4274 13.1503L8.06272 16.5178C8.04729 16.5398 8.02585 16.5509 7.99897 16.5509C7.97214 16.5509 7.95069 16.5397 7.9353 16.5178L5.57007 13.1495C6.23725 12.6335 6.71471 11.8843 6.87909 11.0247ZM14.7098 19.0993H11.2057H4.79057H1.28655V16.0754C1.28655 14.8675 2.26925 13.8848 3.47714 13.8848C3.49354 13.8848 4.21819 13.8672 4.79077 13.607L7.19815 17.0354C7.38112 17.296 7.6805 17.4516 7.99893 17.4516C7.99893 17.4516 7.99893 17.4516 7.99897 17.4516C8.31737 17.4516 8.61678 17.296 8.79975 17.0354L11.2067 13.6075C11.8597 13.8848 12.5028 13.8848 12.5192 13.8848C13.7271 13.8848 14.7098 14.8675 14.7098 16.0754V19.0993Z" fill="black"/>
</svg>
