<svg width="48" height="48" viewBox="0 0 48 48" fill="none" xmlns="http://www.w3.org/2000/svg">
<g clip-path="url(#clip0_1_125593)">
<path d="M17.6001 30.8952L20.0382 17.1809H23.8477L21.4858 30.8952H17.6001Z" fill="#3C58BF"/>
<path d="M17.6001 30.8952L20.7239 17.1809H23.8477L21.4858 30.8952H17.6001Z" fill="#293688"/>
<path d="M35.276 17.3334C34.5141 17.0286 33.2951 16.7239 31.7713 16.7239C27.9618 16.7239 25.2189 18.6286 25.2189 21.3715C25.2189 23.4286 27.1237 24.4953 28.6475 25.181C30.1713 25.8667 30.6284 26.3239 30.6284 26.9334C30.6284 27.8477 29.4094 28.3048 28.3427 28.3048C26.8189 28.3048 25.9808 28.0763 24.6856 27.5429L24.1522 27.3144L23.6189 30.4382C24.5332 30.8191 26.2094 31.2001 27.9618 31.2001C31.9999 31.2001 34.6665 29.2953 34.6665 26.4001C34.6665 24.8001 33.676 23.581 31.3903 22.5905C30.0189 21.9048 29.1808 21.5239 29.1808 20.8382C29.1808 20.2286 29.8665 19.6191 31.3903 19.6191C32.6856 19.6191 33.5999 19.8477 34.2856 20.1524L34.6665 20.3048L35.276 17.3334Z" fill="#3C58BF"/>
<path d="M35.276 17.3334C34.5141 17.0286 33.2951 16.7239 31.7713 16.7239C27.9618 16.7239 25.9046 18.6286 25.9046 21.3715C25.9046 23.4286 27.1237 24.4953 28.6475 25.181C30.1713 25.8667 30.6284 26.3239 30.6284 26.9334C30.6284 27.8477 29.4094 28.3048 28.3427 28.3048C26.8189 28.3048 25.9808 28.0763 24.6856 27.5429L24.1522 27.3144L23.6189 30.4382C24.5332 30.8191 26.2094 31.2001 27.9618 31.2001C31.9999 31.2001 34.6665 29.2953 34.6665 26.4001C34.6665 24.8001 33.676 23.581 31.3903 22.5905C30.0189 21.9048 29.1808 21.5239 29.1808 20.8382C29.1808 20.2286 29.8665 19.6191 31.3903 19.6191C32.6856 19.6191 33.5999 19.8477 34.2856 20.1524L34.6665 20.3048L35.276 17.3334Z" fill="#293688"/>
<path d="M41.8296 17.1809C40.9154 17.1809 40.2296 17.2571 39.8487 18.1714L34.1344 30.8952H38.2487L39.0106 28.6095H43.8868L44.3439 30.8952H48.0011L44.8011 17.1809H41.8296ZM40.0773 26.3238C40.3058 25.638 41.6011 22.2857 41.6011 22.2857C41.6011 22.2857 41.9058 21.4476 42.1344 20.9142L42.363 22.2095C42.363 22.2095 43.1249 25.6381 43.2773 26.4H40.0773V26.3238Z" fill="#3C58BF"/>
<path d="M42.7439 17.1809C41.8296 17.1809 41.1439 17.2571 40.763 18.1714L34.1344 30.8952H38.2487L39.0106 28.6095H43.8868L44.3439 30.8952H48.0011L44.8011 17.1809H42.7439ZM40.0773 26.3238C40.382 25.5619 41.6011 22.2857 41.6011 22.2857C41.6011 22.2857 41.9058 21.4476 42.1344 20.9142L42.363 22.2095C42.363 22.2095 43.1249 25.6381 43.2773 26.4H40.0773V26.3238Z" fill="#293688"/>
<path d="M10.5908 26.7809L10.2098 24.7999C9.52408 22.5142 7.31456 19.9999 4.87646 18.7809L8.30504 30.9714H12.4193L18.5908 17.2571H14.4765L10.5908 26.7809Z" fill="#3C58BF"/>
<path d="M10.5908 26.7809L10.2098 24.7999C9.52408 22.5142 7.31456 19.9999 4.87646 18.7809L8.30504 30.9714H12.4193L18.5908 17.2571H15.2384L10.5908 26.7809Z" fill="#293688"/>
<path d="M0 17.1809L0.685714 17.3333C5.5619 18.4761 8.91428 21.3714 10.2095 24.8L8.83809 18.3238C8.60952 17.4095 7.92381 17.1809 7.08571 17.1809H0Z" fill="#FFBC00"/>
<path d="M0 17.1809C4.87619 18.3238 8.91428 21.2952 10.2095 24.7238L8.91428 19.3142C8.68571 18.4 7.92381 17.8666 7.08571 17.8666L0 17.1809Z" fill="#F7981D"/>
<path d="M0 17.1809C4.87619 18.3238 8.91428 21.2952 10.2095 24.7238L9.29524 21.7523C9.06667 20.8381 8.7619 19.9238 7.69524 19.5428L0 17.1809Z" fill="#ED7C00"/>
<path d="M14.3997 26.3239L11.8093 23.7334L10.5902 26.6286L10.2855 24.7239C9.59974 22.4382 7.39021 19.9239 4.95212 18.7048L8.38069 30.8953H12.495L14.3997 26.3239Z" fill="#051244"/>
<path d="M21.4858 30.8953L18.2096 27.543L17.6001 30.8953H21.4858Z" fill="#051244"/>
<path d="M30.2475 26.1714C30.5522 26.4761 30.7046 26.7047 30.6284 27.0095C30.6284 27.9238 29.4094 28.3809 28.3427 28.3809C26.8189 28.3809 25.9808 28.1523 24.6856 27.619L24.1522 27.3904L23.6189 30.5142C24.5332 30.8952 26.2094 31.2761 27.9618 31.2761C30.3998 31.2761 32.3808 30.5904 33.5237 29.3714L30.2475 26.1714Z" fill="#051244"/>
<path d="M34.6664 30.8953H38.2474L39.0093 28.6095H43.8855L44.3426 30.8953H47.9998L46.7045 25.3334L42.1331 20.9143L42.3617 22.1334C42.3617 22.1334 43.1236 25.5619 43.276 26.3238H40.076C40.3807 25.5619 41.5998 22.2857 41.5998 22.2857C41.5998 22.2857 41.9045 21.4476 42.1331 20.9143" fill="#051244"/>
</g>
<defs>
<clipPath id="clip0_1_125593">
<rect width="48" height="48" fill="white"/>
</clipPath>
</defs>
</svg>
